<?xml version="1.0" standalone="no"?><!DOCTYPE svg PUBLIC "-//W3C//DTD SVG 1.1//EN" "http://www.w3.org/Graphics/SVG/1.1/DTD/svg11.dtd"><svg t="1595429346326" class="icon" viewBox="0 0 1024 1024" version="1.1" xmlns="http://www.w3.org/2000/svg" p-id="1648" xmlns:xlink="http://www.w3.org/1999/xlink" width="200" height="200"><defs><style type="text/css"></style></defs><path d="M941.236 981.3c-11.782 0-21.312-9.5-21.312-21.312s9.532-21.308 21.312-21.308c15.062 0 24.312-25.876 28.532-41.312 19.124-70.25 14.344-212.808-12.5-371.93-11.782-69.966-26.906-135.966-42.594-185.838-20.532-65.468-34.938-80.842-38.156-83.654-10.468-1.344-18.594-10.312-18.594-21.156 0-11.782 9.562-21.344 21.344-21.344 22.5 0 41.094 21.094 60.218 68.374 14.062 34.686 28.25 83.28 41.124 140.56 26.748 119.31 43.374 256.494 43.374 357.99 0 57-5 102.312-14.938 134.75-9.25 30.18-28.498 66.18-67.81 66.18z" fill="#434A54" p-id="1649"></path><path d="M618.682 42.698H106.676a21.324 21.324 0 0 0-15.078 6.25L6.272 134.258A21.346 21.346 0 0 0 3.6 161.196l85.326 127.996a21.35 21.35 0 0 0 17.75 9.5h255.994c0 141.154 114.84 255.996 256.01 255.996 141.152 0 255.992-114.842 255.992-255.996 0.002-141.152-114.838-255.994-255.99-255.994z" fill="#DA4453" p-id="1650"></path><path d="M618.682 42.698H481.84l-91.576 91.56c-8.328 8.344-8.328 21.844 0 30.188a21.286 21.286 0 0 0 15.078 6.25c4.968 0 94.78-1.75 114.106-5.188a21.252 21.252 0 0 0 13.89 5.188c5.468 0 10.906-2.094 15.094-6.25l117.374-117.404a257.366 257.366 0 0 0-47.124-4.344z" fill="#434A54" p-id="1651"></path><path d="M874.674 170.696h-127.996s47.938 35.53 75.936 127.996h52.06c35.344 0 64-28.656 64-63.998s-28.656-63.998-64-63.998z" fill="#FFCE54" p-id="1652"></path><path d="M941.236 981.3c-27.062 0-50.406-17.312-69.344-51.434-14.56-26.25-26.998-63.376-36.998-110.312-17.124-80.246-26.936-190.308-26.936-301.93 0-77.53 4.782-149.09 13.404-201.558 4.688-28.282 10.406-50.686 17.062-66.592 10.062-23.906 23.78-36.032 40.842-36.032 11.782 0 21.344 9.562 21.344 21.344 0 10.406-7.438 19.062-17.312 20.968-3.062 4-13.376 21.25-21.844 80.31-6.78 47.31-10.624 109.81-10.81 175.996-0.468 148.996 16.592 289.054 44.498 365.492 14.188 38.812 30.968 61.124 46.094 61.124 11.782 0 21.312 9.496 21.312 21.308s-9.53 21.316-21.312 21.316z" fill="#434A54" p-id="1653"></path><path d="M533.338 128.008H21.35C9.568 128.008 0.022 137.57 0.022 149.352v213.338c0 11.78 9.546 21.312 21.328 21.312h255.994c0 141.154 114.84 255.994 255.994 255.994s255.996-114.84 255.996-255.994c0-141.152-114.842-255.994-255.996-255.994z" fill="#ED5564" p-id="1654"></path><path d="M533.338 277.35c-58.81 0-106.668 47.842-106.668 106.654s47.858 106.686 106.668 106.686c58.812 0 106.656-47.874 106.656-106.686 0-58.812-47.844-106.654-106.656-106.654z" fill="#FFCE54" p-id="1655"></path></svg>