<svg t="1595401453779" class="icon" viewBox="0 0 1483 1024" version="1.1" xmlns="http://www.w3.org/2000/svg" p-id="697" width="200" height="200"><path d="M175.209931 252.539586L80.472276 157.801931a32.873931 32.873931 0 0 1 23.340138-56.249379 32.838621 32.838621 0 0 1 23.304827 9.639724l95.267311 95.26731A442.756414 442.756414 0 0 1 280.717241 164.934621L177.046069 61.263448C137.886897 22.139586 69.702621 22.174897 30.543448 61.263448a103.671172 103.671172 0 0 0 0 146.467311l102.117518 102.117517a423.371034 423.371034 0 0 1 42.548965-57.30869" fill="#72A149" p-id="698"></path><path d="M1479.856552 50.458483a35.310345 35.310345 0 0 0-31.143724-18.643862H508.504276C241.664 31.814621 19.244138 234.213517 2.189241 492.544c-9.145379 138.522483 37.817379 270.37131 132.272552 371.252966a496.180966 496.180966 0 0 0 432.975448 151.481379c216.417103-30.649379 392.545103-211.014621 418.674759-428.879448 11.369931-94.914207-3.884138-187.851034-44.279172-272.136828h365.673931c11.793655 0 22.810483-5.896828 29.378207-15.713103l141.206068-211.862069a35.169103 35.169103 0 0 0 1.765518-36.228414" fill="#88C057" p-id="699"></path><path d="M495.404138 843.846621c-175.245241 0-317.793103-142.547862-317.793104-317.757793 0-175.209931 142.547862-317.757793 317.793104-317.757794s317.793103 142.547862 317.793103 317.757794c0 175.209931-142.547862 317.757793-317.793103 317.757793z m0-564.894897c-136.262621 0-247.172414 110.874483-247.172414 247.137104 0 136.297931 110.909793 247.137103 247.172414 247.137103s247.172414-110.839172 247.172414-247.137103c0-136.262621-110.909793-247.137103-247.172414-247.137104z" fill="#72A149" p-id="700"></path></svg>